<svg xmlns="http://www.w3.org/2000/svg" width="320" height="420" viewBox="0 0 320 420">
  <rect x="40" y="36" width="240" height="348" rx="26" fill="#dbe5ef" stroke="#6b7684" stroke-width="6"/>
  <rect x="64" y="76" width="192" height="200" rx="18" fill="#f5f8fb"/>
  <rect x="78" y="96" width="164" height="12" rx="6" fill="#8aa0b8"/>
  <rect x="78" y="118" width="164" height="12" rx="6" fill="#8aa0b8"/>
  <rect x="78" y="140" width="164" height="12" rx="6" fill="#8aa0b8"/>
  <rect x="96" y="208" width="48" height="12" rx="6" fill="#5d728a"/>
  <rect x="176" y="208" width="48" height="12" rx="6" fill="#5d728a"/>
  <polygon points="88,214 100,206 100,222" fill="#5d728a"/>
  <polygon points="232,214 220,206 220,222" fill="#5d728a"/>
  <g font-family="Arial, sans-serif" font-size="18" fill="#5d728a" font-weight="700">
    <text x="92" y="258">LEFT ↔ RIGHT</text>
  </g>
  <rect x="72" y="296" width="176" height="64" rx="12" fill="#c3d0de"/>
  <rect x="88" y="312" width="144" height="10" rx="5" fill="#8aa0b8"/>
  <rect x="88" y="332" width="120" height="10" rx="5" fill="#8aa0b8"/>
</svg>
